<mxfile host="app.diagrams.net" modified="2024-09-24T18:03:53.586Z" agent="Mozilla/5.0 (X11; Linux x86_64) AppleWebKit/537.36 (KHTML, like Gecko) Chrome/129.0.0.0 Safari/537.36" etag="Y0dAz_ZzZ2GXziEjOfUT" version="23.1.4" type="github">
  <diagram name="Page-1" id="uUf19knFjCbMXBrJJftN">
    <mxGraphModel dx="879" dy="537" grid="1" gridSize="10" guides="1" tooltips="1" connect="1" arrows="1" fold="1" page="1" pageScale="1" pageWidth="827" pageHeight="1169" math="0" shadow="0">
      <root>
        <mxCell id="0" />
        <mxCell id="1" parent="0" />
        <mxCell id="w9J6-hOUD9O4Cqr6yQGP-1" value="" style="rounded=0;whiteSpace=wrap;html=1;fillColor=#dae8fc;strokeColor=#6c8ebf;" parent="1" vertex="1">
          <mxGeometry x="130" y="180" width="250" height="40" as="geometry" />
        </mxCell>
        <mxCell id="w9J6-hOUD9O4Cqr6yQGP-2" value="" style="shape=table;startSize=0;container=1;collapsible=0;childLayout=tableLayout;fillColor=#d5e8d4;strokeColor=#82b366;" parent="1" vertex="1">
          <mxGeometry x="420" y="180" width="290" height="40" as="geometry" />
        </mxCell>
        <mxCell id="w9J6-hOUD9O4Cqr6yQGP-3" value="" style="shape=tableRow;horizontal=0;startSize=0;swimlaneHead=0;swimlaneBody=0;strokeColor=inherit;top=0;left=0;bottom=0;right=0;collapsible=0;dropTarget=0;fillColor=none;points=[[0,0.5],[1,0.5]];portConstraint=eastwest;" parent="w9J6-hOUD9O4Cqr6yQGP-2" vertex="1">
          <mxGeometry width="290" height="40" as="geometry" />
        </mxCell>
        <mxCell id="w9J6-hOUD9O4Cqr6yQGP-4" value="" style="shape=partialRectangle;html=1;whiteSpace=wrap;connectable=0;strokeColor=inherit;overflow=hidden;fillColor=none;top=0;left=0;bottom=0;right=0;pointerEvents=1;" parent="w9J6-hOUD9O4Cqr6yQGP-3" vertex="1">
          <mxGeometry width="96" height="40" as="geometry">
            <mxRectangle width="96" height="40" as="alternateBounds" />
          </mxGeometry>
        </mxCell>
        <mxCell id="w9J6-hOUD9O4Cqr6yQGP-5" value="" style="shape=partialRectangle;html=1;whiteSpace=wrap;connectable=0;strokeColor=inherit;overflow=hidden;fillColor=none;top=0;left=0;bottom=0;right=0;pointerEvents=1;" parent="w9J6-hOUD9O4Cqr6yQGP-3" vertex="1">
          <mxGeometry x="96" width="98" height="40" as="geometry">
            <mxRectangle width="98" height="40" as="alternateBounds" />
          </mxGeometry>
        </mxCell>
        <mxCell id="w9J6-hOUD9O4Cqr6yQGP-6" value="" style="shape=partialRectangle;html=1;whiteSpace=wrap;connectable=0;strokeColor=inherit;overflow=hidden;fillColor=none;top=0;left=0;bottom=0;right=0;pointerEvents=1;" parent="w9J6-hOUD9O4Cqr6yQGP-3" vertex="1">
          <mxGeometry x="194" width="96" height="40" as="geometry">
            <mxRectangle width="96" height="40" as="alternateBounds" />
          </mxGeometry>
        </mxCell>
        <mxCell id="w9J6-hOUD9O4Cqr6yQGP-7" value="&lt;font style=&quot;font-size: 15px;&quot;&gt;H1&lt;br&gt;Old Space&lt;/font&gt;" style="text;html=1;align=center;verticalAlign=middle;whiteSpace=wrap;rounded=0;" parent="1" vertex="1">
          <mxGeometry x="49" y="180" width="81" height="40" as="geometry" />
        </mxCell>
        <mxCell id="w9J6-hOUD9O4Cqr6yQGP-8" value="&lt;span style=&quot;font-size: 15px;&quot;&gt;H2&lt;/span&gt;" style="text;html=1;align=center;verticalAlign=middle;whiteSpace=wrap;rounded=0;" parent="1" vertex="1">
          <mxGeometry x="710" y="180" width="30" height="40" as="geometry" />
        </mxCell>
        <mxCell id="w9J6-hOUD9O4Cqr6yQGP-9" value="" style="ellipse;whiteSpace=wrap;html=1;aspect=fixed;fillColor=#f5f5f5;fontColor=#333333;strokeColor=#666666;" parent="1" vertex="1">
          <mxGeometry x="130" y="185" width="30" height="30" as="geometry" />
        </mxCell>
        <mxCell id="w9J6-hOUD9O4Cqr6yQGP-10" value="" style="ellipse;whiteSpace=wrap;html=1;aspect=fixed;fillColor=#424242;fontColor=#333333;strokeColor=#666666;" parent="1" vertex="1">
          <mxGeometry x="160" y="185" width="30" height="30" as="geometry" />
        </mxCell>
        <mxCell id="w9J6-hOUD9O4Cqr6yQGP-11" value="" style="ellipse;whiteSpace=wrap;html=1;aspect=fixed;fillColor=#424242;fontColor=#333333;strokeColor=#666666;" parent="1" vertex="1">
          <mxGeometry x="190" y="185" width="30" height="30" as="geometry" />
        </mxCell>
        <mxCell id="w9J6-hOUD9O4Cqr6yQGP-12" value="" style="ellipse;whiteSpace=wrap;html=1;aspect=fixed;fillColor=#f5f5f5;fontColor=#333333;strokeColor=#666666;" parent="1" vertex="1">
          <mxGeometry x="220" y="185" width="30" height="30" as="geometry" />
        </mxCell>
        <mxCell id="w9J6-hOUD9O4Cqr6yQGP-13" value="" style="ellipse;whiteSpace=wrap;html=1;aspect=fixed;fillColor=#f5f5f5;fontColor=#333333;strokeColor=#666666;" parent="1" vertex="1">
          <mxGeometry x="250" y="185" width="30" height="30" as="geometry" />
        </mxCell>
        <mxCell id="w9J6-hOUD9O4Cqr6yQGP-14" value="" style="ellipse;whiteSpace=wrap;html=1;aspect=fixed;fillColor=#f5f5f5;fontColor=#333333;strokeColor=#666666;" parent="1" vertex="1">
          <mxGeometry x="420" y="185" width="30" height="30" as="geometry" />
        </mxCell>
        <mxCell id="w9J6-hOUD9O4Cqr6yQGP-15" value="" style="ellipse;whiteSpace=wrap;html=1;aspect=fixed;fillColor=#f5f5f5;fontColor=#333333;strokeColor=#666666;" parent="1" vertex="1">
          <mxGeometry x="450" y="185" width="30" height="30" as="geometry" />
        </mxCell>
        <mxCell id="w9J6-hOUD9O4Cqr6yQGP-16" value="" style="ellipse;whiteSpace=wrap;html=1;aspect=fixed;fillColor=#f5f5f5;fontColor=#333333;strokeColor=#666666;" parent="1" vertex="1">
          <mxGeometry x="480" y="185" width="30" height="30" as="geometry" />
        </mxCell>
        <mxCell id="w9J6-hOUD9O4Cqr6yQGP-17" value="" style="ellipse;whiteSpace=wrap;html=1;aspect=fixed;fillColor=#f5f5f5;fontColor=#333333;strokeColor=#666666;" parent="1" vertex="1">
          <mxGeometry x="644" y="185" width="30" height="30" as="geometry" />
        </mxCell>
        <mxCell id="w9J6-hOUD9O4Cqr6yQGP-18" value="" style="ellipse;whiteSpace=wrap;html=1;aspect=fixed;fillColor=#424242;fontColor=#333333;strokeColor=#666666;" parent="1" vertex="1">
          <mxGeometry x="614" y="185" width="30" height="30" as="geometry" />
        </mxCell>
        <mxCell id="w9J6-hOUD9O4Cqr6yQGP-20" value="" style="curved=1;endArrow=classic;html=1;rounded=0;exitX=0.5;exitY=0;exitDx=0;exitDy=0;entryX=0.5;entryY=0;entryDx=0;entryDy=0;" parent="1" source="w9J6-hOUD9O4Cqr6yQGP-12" target="w9J6-hOUD9O4Cqr6yQGP-17" edge="1">
          <mxGeometry width="50" height="50" relative="1" as="geometry">
            <mxPoint x="380" y="290" as="sourcePoint" />
            <mxPoint x="430" y="240" as="targetPoint" />
            <Array as="points">
              <mxPoint x="560" y="60" />
            </Array>
          </mxGeometry>
        </mxCell>
        <mxCell id="w9J6-hOUD9O4Cqr6yQGP-21" value="" style="curved=1;endArrow=classic;html=1;rounded=0;exitX=0.5;exitY=0;exitDx=0;exitDy=0;entryX=0.5;entryY=0;entryDx=0;entryDy=0;" parent="1" source="w9J6-hOUD9O4Cqr6yQGP-13" target="w9J6-hOUD9O4Cqr6yQGP-14" edge="1">
          <mxGeometry width="50" height="50" relative="1" as="geometry">
            <mxPoint x="280" y="190" as="sourcePoint" />
            <mxPoint x="480" y="170" as="targetPoint" />
            <Array as="points">
              <mxPoint x="380" y="140" />
            </Array>
          </mxGeometry>
        </mxCell>
        <mxCell id="w9J6-hOUD9O4Cqr6yQGP-22" value="" style="curved=1;endArrow=classic;html=1;rounded=0;exitX=0.5;exitY=0;exitDx=0;exitDy=0;entryX=0.5;entryY=0;entryDx=0;entryDy=0;" parent="1" source="w9J6-hOUD9O4Cqr6yQGP-13" target="w9J6-hOUD9O4Cqr6yQGP-15" edge="1">
          <mxGeometry width="50" height="50" relative="1" as="geometry">
            <mxPoint x="320" y="190" as="sourcePoint" />
            <mxPoint x="456" y="190" as="targetPoint" />
            <Array as="points">
              <mxPoint x="400" y="130" />
            </Array>
          </mxGeometry>
        </mxCell>
        <mxCell id="w9J6-hOUD9O4Cqr6yQGP-23" value="" style="curved=1;endArrow=classic;html=1;rounded=0;exitX=0.5;exitY=0;exitDx=0;exitDy=0;entryX=0.5;entryY=0;entryDx=0;entryDy=0;" parent="1" source="w9J6-hOUD9O4Cqr6yQGP-13" target="w9J6-hOUD9O4Cqr6yQGP-16" edge="1">
          <mxGeometry width="50" height="50" relative="1" as="geometry">
            <mxPoint x="320" y="190" as="sourcePoint" />
            <mxPoint x="501" y="190" as="targetPoint" />
            <Array as="points">
              <mxPoint x="440" y="120" />
            </Array>
          </mxGeometry>
        </mxCell>
        <mxCell id="w9J6-hOUD9O4Cqr6yQGP-25" value="" style="endArrow=classic;html=1;rounded=0;entryX=1;entryY=0.5;entryDx=0;entryDy=0;exitX=0.5;exitY=0;exitDx=0;exitDy=0;" parent="1" source="w9J6-hOUD9O4Cqr6yQGP-28" target="w9J6-hOUD9O4Cqr6yQGP-13" edge="1">
          <mxGeometry width="50" height="50" relative="1" as="geometry">
            <mxPoint x="330" y="240" as="sourcePoint" />
            <mxPoint x="330" y="220" as="targetPoint" />
          </mxGeometry>
        </mxCell>
        <mxCell id="w9J6-hOUD9O4Cqr6yQGP-28" value="&lt;b&gt;&lt;font style=&quot;font-size: 13px;&quot;&gt;Top Pointer&lt;/font&gt;&lt;/b&gt;" style="text;html=1;align=center;verticalAlign=middle;whiteSpace=wrap;rounded=0;" parent="1" vertex="1">
          <mxGeometry x="250" y="240" width="60" height="30" as="geometry" />
        </mxCell>
        <mxCell id="w9J6-hOUD9O4Cqr6yQGP-30" value="" style="endArrow=classic;html=1;rounded=0;entryX=1;entryY=0.5;entryDx=0;entryDy=0;" parent="1" edge="1">
          <mxGeometry width="50" height="50" relative="1" as="geometry">
            <mxPoint x="220" y="240" as="sourcePoint" />
            <mxPoint x="220" y="200" as="targetPoint" />
          </mxGeometry>
        </mxCell>
        <mxCell id="w9J6-hOUD9O4Cqr6yQGP-31" value="&lt;b&gt;&lt;font style=&quot;font-size: 13px;&quot;&gt;New Top Pointer&lt;/font&gt;&lt;/b&gt;" style="text;html=1;align=center;verticalAlign=middle;whiteSpace=wrap;rounded=0;" parent="1" vertex="1">
          <mxGeometry x="190" y="240" width="60" height="30" as="geometry" />
        </mxCell>
        <mxCell id="w9J6-hOUD9O4Cqr6yQGP-32" value="" style="ellipse;whiteSpace=wrap;html=1;aspect=fixed;fillColor=#f5f5f5;fontColor=#333333;strokeColor=#666666;" parent="1" vertex="1">
          <mxGeometry x="517" y="185" width="30" height="30" as="geometry" />
        </mxCell>
        <mxCell id="w9J6-hOUD9O4Cqr6yQGP-33" value="" style="curved=1;endArrow=classic;html=1;rounded=0;exitX=0.5;exitY=0;exitDx=0;exitDy=0;entryX=0.5;entryY=0;entryDx=0;entryDy=0;" parent="1" source="w9J6-hOUD9O4Cqr6yQGP-13" target="w9J6-hOUD9O4Cqr6yQGP-32" edge="1">
          <mxGeometry width="50" height="50" relative="1" as="geometry">
            <mxPoint x="275" y="195" as="sourcePoint" />
            <mxPoint x="505" y="195" as="targetPoint" />
            <Array as="points">
              <mxPoint x="450" y="110" />
            </Array>
          </mxGeometry>
        </mxCell>
        <mxCell id="w9J6-hOUD9O4Cqr6yQGP-75" style="edgeStyle=orthogonalEdgeStyle;rounded=0;orthogonalLoop=1;jettySize=auto;html=1;exitX=0.25;exitY=1;exitDx=0;exitDy=0;entryX=0.5;entryY=1;entryDx=0;entryDy=0;" parent="1" source="w9J6-hOUD9O4Cqr6yQGP-35" target="w9J6-hOUD9O4Cqr6yQGP-31" edge="1">
          <mxGeometry relative="1" as="geometry">
            <Array as="points">
              <mxPoint x="614" y="290" />
              <mxPoint x="220" y="290" />
            </Array>
          </mxGeometry>
        </mxCell>
        <mxCell id="w9J6-hOUD9O4Cqr6yQGP-35" value="" style="shape=curlyBracket;whiteSpace=wrap;html=1;rounded=1;flipH=1;labelPosition=right;verticalLabelPosition=middle;align=left;verticalAlign=middle;rotation=90;" parent="1" vertex="1">
          <mxGeometry x="634" y="200" width="20" height="60" as="geometry" />
        </mxCell>
        <mxCell id="w9J6-hOUD9O4Cqr6yQGP-36" value="&lt;b&gt;&lt;font style=&quot;font-size: 13px;&quot;&gt;Diff&lt;/font&gt;&lt;/b&gt;" style="text;html=1;align=center;verticalAlign=middle;whiteSpace=wrap;rounded=0;" parent="1" vertex="1">
          <mxGeometry x="614" y="240" width="60" height="30" as="geometry" />
        </mxCell>
        <mxCell id="w9J6-hOUD9O4Cqr6yQGP-37" value="" style="rounded=0;whiteSpace=wrap;html=1;fillColor=#dae8fc;strokeColor=#6c8ebf;" parent="1" vertex="1">
          <mxGeometry x="130" y="430" width="250" height="40" as="geometry" />
        </mxCell>
        <mxCell id="w9J6-hOUD9O4Cqr6yQGP-38" value="" style="shape=table;startSize=0;container=1;collapsible=0;childLayout=tableLayout;fillColor=#d5e8d4;strokeColor=#82b366;" parent="1" vertex="1">
          <mxGeometry x="420" y="430" width="290" height="40" as="geometry" />
        </mxCell>
        <mxCell id="w9J6-hOUD9O4Cqr6yQGP-39" value="" style="shape=tableRow;horizontal=0;startSize=0;swimlaneHead=0;swimlaneBody=0;strokeColor=inherit;top=0;left=0;bottom=0;right=0;collapsible=0;dropTarget=0;fillColor=none;points=[[0,0.5],[1,0.5]];portConstraint=eastwest;" parent="w9J6-hOUD9O4Cqr6yQGP-38" vertex="1">
          <mxGeometry width="290" height="40" as="geometry" />
        </mxCell>
        <mxCell id="w9J6-hOUD9O4Cqr6yQGP-40" value="" style="shape=partialRectangle;html=1;whiteSpace=wrap;connectable=0;strokeColor=inherit;overflow=hidden;fillColor=none;top=0;left=0;bottom=0;right=0;pointerEvents=1;" parent="w9J6-hOUD9O4Cqr6yQGP-39" vertex="1">
          <mxGeometry width="96" height="40" as="geometry">
            <mxRectangle width="96" height="40" as="alternateBounds" />
          </mxGeometry>
        </mxCell>
        <mxCell id="w9J6-hOUD9O4Cqr6yQGP-41" value="" style="shape=partialRectangle;html=1;whiteSpace=wrap;connectable=0;strokeColor=inherit;overflow=hidden;fillColor=none;top=0;left=0;bottom=0;right=0;pointerEvents=1;" parent="w9J6-hOUD9O4Cqr6yQGP-39" vertex="1">
          <mxGeometry x="96" width="98" height="40" as="geometry">
            <mxRectangle width="98" height="40" as="alternateBounds" />
          </mxGeometry>
        </mxCell>
        <mxCell id="w9J6-hOUD9O4Cqr6yQGP-42" value="" style="shape=partialRectangle;html=1;whiteSpace=wrap;connectable=0;strokeColor=inherit;overflow=hidden;fillColor=none;top=0;left=0;bottom=0;right=0;pointerEvents=1;" parent="w9J6-hOUD9O4Cqr6yQGP-39" vertex="1">
          <mxGeometry x="194" width="96" height="40" as="geometry">
            <mxRectangle width="96" height="40" as="alternateBounds" />
          </mxGeometry>
        </mxCell>
        <mxCell id="w9J6-hOUD9O4Cqr6yQGP-43" value="&lt;font style=&quot;font-size: 15px;&quot;&gt;H1&lt;br&gt;Old Space&lt;/font&gt;" style="text;html=1;align=center;verticalAlign=middle;whiteSpace=wrap;rounded=0;" parent="1" vertex="1">
          <mxGeometry x="49" y="430" width="81" height="40" as="geometry" />
        </mxCell>
        <mxCell id="w9J6-hOUD9O4Cqr6yQGP-44" value="&lt;span style=&quot;font-size: 15px;&quot;&gt;H2&lt;/span&gt;" style="text;html=1;align=center;verticalAlign=middle;whiteSpace=wrap;rounded=0;" parent="1" vertex="1">
          <mxGeometry x="710" y="430" width="30" height="40" as="geometry" />
        </mxCell>
        <mxCell id="w9J6-hOUD9O4Cqr6yQGP-45" value="" style="ellipse;whiteSpace=wrap;html=1;aspect=fixed;fillColor=#f5f5f5;fontColor=#333333;strokeColor=#666666;" parent="1" vertex="1">
          <mxGeometry x="130" y="435" width="30" height="30" as="geometry" />
        </mxCell>
        <mxCell id="w9J6-hOUD9O4Cqr6yQGP-48" value="" style="ellipse;whiteSpace=wrap;html=1;aspect=fixed;fillColor=#f5f5f5;fontColor=#333333;strokeColor=#666666;" parent="1" vertex="1">
          <mxGeometry x="160" y="435" width="30" height="30" as="geometry" />
        </mxCell>
        <mxCell id="w9J6-hOUD9O4Cqr6yQGP-49" value="" style="ellipse;whiteSpace=wrap;html=1;aspect=fixed;fillColor=#f5f5f5;fontColor=#333333;strokeColor=#666666;" parent="1" vertex="1">
          <mxGeometry x="190" y="435" width="30" height="30" as="geometry" />
        </mxCell>
        <mxCell id="w9J6-hOUD9O4Cqr6yQGP-50" value="" style="ellipse;whiteSpace=wrap;html=1;aspect=fixed;fillColor=#f5f5f5;fontColor=#333333;strokeColor=#666666;" parent="1" vertex="1">
          <mxGeometry x="420" y="435" width="30" height="30" as="geometry" />
        </mxCell>
        <mxCell id="w9J6-hOUD9O4Cqr6yQGP-51" value="" style="ellipse;whiteSpace=wrap;html=1;aspect=fixed;fillColor=#f5f5f5;fontColor=#333333;strokeColor=#666666;" parent="1" vertex="1">
          <mxGeometry x="450" y="435" width="30" height="30" as="geometry" />
        </mxCell>
        <mxCell id="w9J6-hOUD9O4Cqr6yQGP-52" value="" style="ellipse;whiteSpace=wrap;html=1;aspect=fixed;fillColor=#f5f5f5;fontColor=#333333;strokeColor=#666666;" parent="1" vertex="1">
          <mxGeometry x="480" y="435" width="30" height="30" as="geometry" />
        </mxCell>
        <mxCell id="w9J6-hOUD9O4Cqr6yQGP-53" value="" style="ellipse;whiteSpace=wrap;html=1;aspect=fixed;fillColor=#f5f5f5;fontColor=#333333;strokeColor=#666666;" parent="1" vertex="1">
          <mxGeometry x="250" y="435" width="30" height="30" as="geometry" />
        </mxCell>
        <mxCell id="w9J6-hOUD9O4Cqr6yQGP-54" value="" style="ellipse;whiteSpace=wrap;html=1;aspect=fixed;fillColor=#424242;fontColor=#333333;strokeColor=#666666;" parent="1" vertex="1">
          <mxGeometry x="220" y="435" width="30" height="30" as="geometry" />
        </mxCell>
        <mxCell id="w9J6-hOUD9O4Cqr6yQGP-55" value="" style="curved=1;endArrow=classic;html=1;rounded=0;exitX=0.5;exitY=0;exitDx=0;exitDy=0;entryX=0.5;entryY=0;entryDx=0;entryDy=0;" parent="1" source="w9J6-hOUD9O4Cqr6yQGP-48" target="w9J6-hOUD9O4Cqr6yQGP-53" edge="1">
          <mxGeometry width="50" height="50" relative="1" as="geometry">
            <mxPoint x="380" y="540" as="sourcePoint" />
            <mxPoint x="430" y="490" as="targetPoint" />
            <Array as="points">
              <mxPoint x="210" y="360" />
            </Array>
          </mxGeometry>
        </mxCell>
        <mxCell id="w9J6-hOUD9O4Cqr6yQGP-56" value="" style="curved=1;endArrow=classic;html=1;rounded=0;exitX=0.5;exitY=0;exitDx=0;exitDy=0;entryX=0.5;entryY=0;entryDx=0;entryDy=0;" parent="1" source="w9J6-hOUD9O4Cqr6yQGP-49" target="w9J6-hOUD9O4Cqr6yQGP-50" edge="1">
          <mxGeometry width="50" height="50" relative="1" as="geometry">
            <mxPoint x="280" y="440" as="sourcePoint" />
            <mxPoint x="480" y="420" as="targetPoint" />
            <Array as="points">
              <mxPoint x="400" y="330" />
            </Array>
          </mxGeometry>
        </mxCell>
        <mxCell id="w9J6-hOUD9O4Cqr6yQGP-57" value="" style="curved=1;endArrow=classic;html=1;rounded=0;exitX=0.5;exitY=0;exitDx=0;exitDy=0;entryX=0.5;entryY=0;entryDx=0;entryDy=0;" parent="1" source="w9J6-hOUD9O4Cqr6yQGP-49" target="w9J6-hOUD9O4Cqr6yQGP-51" edge="1">
          <mxGeometry width="50" height="50" relative="1" as="geometry">
            <mxPoint x="320" y="440" as="sourcePoint" />
            <mxPoint x="456" y="440" as="targetPoint" />
            <Array as="points">
              <mxPoint x="400" y="330" />
            </Array>
          </mxGeometry>
        </mxCell>
        <mxCell id="w9J6-hOUD9O4Cqr6yQGP-58" value="" style="curved=1;endArrow=classic;html=1;rounded=0;exitX=0.5;exitY=0;exitDx=0;exitDy=0;entryX=0.5;entryY=0;entryDx=0;entryDy=0;" parent="1" source="w9J6-hOUD9O4Cqr6yQGP-49" target="w9J6-hOUD9O4Cqr6yQGP-52" edge="1">
          <mxGeometry width="50" height="50" relative="1" as="geometry">
            <mxPoint x="320" y="440" as="sourcePoint" />
            <mxPoint x="501" y="440" as="targetPoint" />
            <Array as="points">
              <mxPoint x="400" y="330" />
            </Array>
          </mxGeometry>
        </mxCell>
        <mxCell id="w9J6-hOUD9O4Cqr6yQGP-59" value="" style="endArrow=classic;html=1;rounded=0;exitX=0.5;exitY=0;exitDx=0;exitDy=0;entryX=1;entryY=0.5;entryDx=0;entryDy=0;" parent="1" source="w9J6-hOUD9O4Cqr6yQGP-60" target="w9J6-hOUD9O4Cqr6yQGP-53" edge="1">
          <mxGeometry width="50" height="50" relative="1" as="geometry">
            <mxPoint x="330" y="490" as="sourcePoint" />
            <mxPoint x="320" y="500" as="targetPoint" />
          </mxGeometry>
        </mxCell>
        <mxCell id="w9J6-hOUD9O4Cqr6yQGP-60" value="&lt;b&gt;&lt;font style=&quot;font-size: 13px;&quot;&gt;Top Pointer&lt;/font&gt;&lt;/b&gt;" style="text;html=1;align=center;verticalAlign=middle;whiteSpace=wrap;rounded=0;" parent="1" vertex="1">
          <mxGeometry x="250" y="520" width="60" height="30" as="geometry" />
        </mxCell>
        <mxCell id="w9J6-hOUD9O4Cqr6yQGP-61" value="" style="endArrow=classic;html=1;rounded=0;entryX=1;entryY=0.5;entryDx=0;entryDy=0;exitX=0.5;exitY=0;exitDx=0;exitDy=0;" parent="1" source="w9J6-hOUD9O4Cqr6yQGP-62" edge="1">
          <mxGeometry width="50" height="50" relative="1" as="geometry">
            <mxPoint x="220" y="490" as="sourcePoint" />
            <mxPoint x="220" y="450" as="targetPoint" />
          </mxGeometry>
        </mxCell>
        <mxCell id="w9J6-hOUD9O4Cqr6yQGP-62" value="&lt;b&gt;&lt;font style=&quot;font-size: 13px;&quot;&gt;New Top Pointer&lt;/font&gt;&lt;/b&gt;" style="text;html=1;align=center;verticalAlign=middle;whiteSpace=wrap;rounded=0;" parent="1" vertex="1">
          <mxGeometry x="190" y="520" width="60" height="30" as="geometry" />
        </mxCell>
        <mxCell id="w9J6-hOUD9O4Cqr6yQGP-63" value="" style="ellipse;whiteSpace=wrap;html=1;aspect=fixed;fillColor=#f5f5f5;fontColor=#333333;strokeColor=#666666;" parent="1" vertex="1">
          <mxGeometry x="517" y="435" width="30" height="30" as="geometry" />
        </mxCell>
        <mxCell id="w9J6-hOUD9O4Cqr6yQGP-64" value="" style="curved=1;endArrow=classic;html=1;rounded=0;exitX=0.5;exitY=0;exitDx=0;exitDy=0;entryX=0.5;entryY=0;entryDx=0;entryDy=0;" parent="1" source="w9J6-hOUD9O4Cqr6yQGP-49" target="w9J6-hOUD9O4Cqr6yQGP-63" edge="1">
          <mxGeometry width="50" height="50" relative="1" as="geometry">
            <mxPoint x="275" y="445" as="sourcePoint" />
            <mxPoint x="505" y="445" as="targetPoint" />
            <Array as="points">
              <mxPoint x="390" y="330" />
            </Array>
          </mxGeometry>
        </mxCell>
        <mxCell id="w9J6-hOUD9O4Cqr6yQGP-65" value="" style="shape=curlyBracket;whiteSpace=wrap;html=1;rounded=1;flipH=1;labelPosition=right;verticalLabelPosition=middle;align=left;verticalAlign=middle;rotation=90;" parent="1" vertex="1">
          <mxGeometry x="240" y="450" width="20" height="60" as="geometry" />
        </mxCell>
        <mxCell id="w9J6-hOUD9O4Cqr6yQGP-66" value="&lt;b&gt;&lt;font style=&quot;font-size: 13px;&quot;&gt;Diff&lt;/font&gt;&lt;/b&gt;" style="text;html=1;align=center;verticalAlign=middle;whiteSpace=wrap;rounded=0;" parent="1" vertex="1">
          <mxGeometry x="220" y="490" width="60" height="30" as="geometry" />
        </mxCell>
        <mxCell id="w9J6-hOUD9O4Cqr6yQGP-74" style="edgeStyle=orthogonalEdgeStyle;rounded=0;orthogonalLoop=1;jettySize=auto;html=1;exitX=0.1;exitY=0.5;exitDx=0;exitDy=0;exitPerimeter=0;entryX=0.5;entryY=1;entryDx=0;entryDy=0;endArrow=none;endFill=0;" parent="1" source="w9J6-hOUD9O4Cqr6yQGP-70" target="w9J6-hOUD9O4Cqr6yQGP-71" edge="1">
          <mxGeometry relative="1" as="geometry">
            <mxPoint x="629.2" y="130" as="targetPoint" />
          </mxGeometry>
        </mxCell>
        <mxCell id="w9J6-hOUD9O4Cqr6yQGP-70" value="" style="shape=curlyBracket;whiteSpace=wrap;html=1;rounded=1;flipH=1;labelPosition=right;verticalLabelPosition=middle;align=left;verticalAlign=middle;rotation=-90;size=0.5;" parent="1" vertex="1">
          <mxGeometry x="619" y="155" width="20" height="30" as="geometry" />
        </mxCell>
        <mxCell id="w9J6-hOUD9O4Cqr6yQGP-71" value="&lt;b&gt;&lt;font style=&quot;font-size: 13px;&quot;&gt;Offset for Pointer Adjustment&lt;/font&gt;&lt;/b&gt;" style="text;html=1;align=center;verticalAlign=middle;whiteSpace=wrap;rounded=0;" parent="1" vertex="1">
          <mxGeometry x="564" y="90" width="130" height="30" as="geometry" />
        </mxCell>
        <mxCell id="w9J6-hOUD9O4Cqr6yQGP-76" value="&lt;b&gt;Destination Address&lt;/b&gt;" style="text;html=1;align=center;verticalAlign=middle;whiteSpace=wrap;rounded=0;" parent="1" vertex="1">
          <mxGeometry x="345" y="265" width="120" height="30" as="geometry" />
        </mxCell>
      </root>
    </mxGraphModel>
  </diagram>
</mxfile>
